<svg xmlns="http://www.w3.org/2000/svg" width="880" height="356" viewBox="0 0 880 356" fill="none" role="img" aria-labelledby="od-t">
<title id="od-t">GitHub stats for Anwarsadathh</title>
<defs>
  <linearGradient id="od-bg" x1="0" y1="0" x2="1" y2="1"><stop offset="0" stop-color="#0b1120"/><stop offset="1" stop-color="#111a2e"/></linearGradient>
  <linearGradient id="od-acc" x1="0" y1="0" x2="1" y2="0"><stop offset="0" stop-color="#22d3ee"/><stop offset="0.55" stop-color="#a78bfa"/><stop offset="1" stop-color="#34d399"/></linearGradient>
  <linearGradient id="od-bar" x1="0" y1="1" x2="0" y2="0"><stop offset="0" stop-color="#0e7490"/><stop offset="1" stop-color="#67e8f9"/></linearGradient>
  <linearGradient id="od-now" x1="0" y1="1" x2="0" y2="0"><stop offset="0" stop-color="#059669"/><stop offset="1" stop-color="#6ee7b7"/></linearGradient>
  <radialGradient id="od-glow" cx="0.12" cy="0" r="0.7"><stop offset="0" stop-color="#22d3ee" stop-opacity="0.14"/><stop offset="1" stop-color="#22d3ee" stop-opacity="0"/></radialGradient>
</defs>
<style>
  text{font-family:-apple-system, BlinkMacSystemFont, 'Segoe UI', 'Helvetica Neue', Ubuntu, Arial, sans-serif}
  .mono{font-family:'SF Mono', 'JetBrains Mono', Consolas, 'Liberation Mono', Menlo, monospace}
  .fade{animation:fade .7s ease-out backwards}
  .grow{transform-box:fill-box;transform-origin:50% 100%;animation:grow .9s cubic-bezier(.2,.8,.2,1) backwards}
  .ring{animation:ring 1.4s cubic-bezier(.2,.8,.2,1) backwards}
  @keyframes fade{from{opacity:0}}
  @keyframes grow{from{transform:scaleY(0)}}
  .growx{transform-box:fill-box;transform-origin:0 50%;animation:growx 1s cubic-bezier(.2,.8,.2,1) backwards}
  @keyframes growx{from{transform:scaleX(0)}}
  @media (prefers-reduced-motion:reduce){.fade,.grow,.growx,.ring{animation:none}}
  @keyframes ring{from{stroke-dashoffset:var(--c)}}
</style>
<rect x="0.5" y="0.5" width="879" height="355" rx="16" fill="url(#od-bg)" stroke="#1e2a44"/>
<rect x="0.5" y="0.5" width="879" height="355" rx="16" fill="url(#od-glow)"/>
<g class="fade" style="animation-delay:.05s">
  <text x="36" y="52" font-size="11.5" font-weight="700" fill="#8a97b0" letter-spacing="2.2">TOTAL CONTRIBUTIONS</text>
  <text x="34" y="112" font-size="64" font-weight="800" fill="url(#od-acc)" letter-spacing="-2">2,137</text>
  <text x="36" y="140" font-size="13.5" fill="#8a97b0">since <tspan fill="#e6edf7" font-weight="600">Aug 6, 2022</tspan>  ·  <tspan fill="#e6edf7" font-weight="600">605</tspan> in the last 12 months</text>
</g><g class="fade" style="animation-delay:0.2s">
  <circle cx="610" cy="72" r="34" stroke="#1a2540" stroke-width="7"/>
  <circle class="ring" cx="610" cy="72" r="34" stroke="#34d399" stroke-width="7" stroke-linecap="round"
    stroke-dasharray="213.6" stroke-dashoffset="175.9" style="--c:213.6" transform="rotate(-90 610 72)"/>
  <text x="610" y="74" text-anchor="middle" font-size="24" font-weight="800" fill="#e6edf7">3</text>
  <text x="610" y="89" text-anchor="middle" font-size="9.5" font-weight="600" fill="#8a97b0" letter-spacing="1">DAYS</text>
  <text x="610" y="130" text-anchor="middle" font-size="12.5" font-weight="700" fill="#e6edf7">Current streak</text>
  <text x="610" y="147" text-anchor="middle" font-size="11" fill="#8a97b0">Oct 8 – Oct 10</text>
</g><g class="fade" style="animation-delay:0.3s">
  <circle cx="780" cy="72" r="34" stroke="#1a2540" stroke-width="7"/>
  <circle class="ring" cx="780" cy="72" r="34" stroke="#a78bfa" stroke-width="7" stroke-linecap="round"
    stroke-dasharray="213.6" stroke-dashoffset="0.0" style="--c:213.6" transform="rotate(-90 780 72)"/>
  <text x="780" y="74" text-anchor="middle" font-size="24" font-weight="800" fill="#e6edf7">17</text>
  <text x="780" y="89" text-anchor="middle" font-size="9.5" font-weight="600" fill="#8a97b0" letter-spacing="1">DAYS</text>
  <text x="780" y="130" text-anchor="middle" font-size="12.5" font-weight="700" fill="#e6edf7">Longest streak</text>
  <text x="780" y="147" text-anchor="middle" font-size="11" fill="#8a97b0">Jun 18 – Jul 4</text>
</g><line x1="36" y1="178" x2="844" y2="178" stroke="#1e2a44"/><text x="36" y="203" font-size="11.5" font-weight="700" fill="#8a97b0" letter-spacing="2.2">LAST 12 MONTHS</text><text x="844" y="203" text-anchor="end" font-size="11.5" fill="#8a97b0">best day <tspan fill="#e6edf7" font-weight="700">23</tspan> · Oct 9, 2024</text><line x1="36" y1="244.66666666666666" x2="844" y2="244.66666666666666" stroke="#17223a" stroke-dasharray="3 5"/><line x1="36" y1="275.3333333333333" x2="844" y2="275.3333333333333" stroke="#17223a" stroke-dasharray="3 5"/><line x1="36" y1="306" x2="844" y2="306" stroke="#17223a" stroke-dasharray="3 5"/><rect x="50.7" y="214" width="38.0" height="92" rx="6" fill="#121b2f"/><rect class="grow" style="animation-delay:0.35s" x="50.7" y="288.1" width="38.0" height="17.9" rx="6" fill="url(#od-bar)"/><text class="fade" style="animation-delay:0.6s" x="69.7" y="282.1" text-anchor="middle" font-size="10.5" font-weight="700" fill="#e6edf7">19</text><text x="69.7" y="324" text-anchor="middle" font-size="11" font-weight="400" fill="#8a97b0">Nov</text><rect x="118.0" y="214" width="38.0" height="92" rx="6" fill="#121b2f"/><rect class="grow" style="animation-delay:0.39999999999999997s" x="118.0" y="246.8" width="38.0" height="59.2" rx="6" fill="url(#od-bar)"/><text class="fade" style="animation-delay:0.65s" x="137.0" y="240.8" text-anchor="middle" font-size="10.5" font-weight="700" fill="#e6edf7">63</text><text x="137.0" y="324" text-anchor="middle" font-size="11" font-weight="400" fill="#8a97b0">Dec</text><rect x="185.3" y="214" width="38.0" height="92" rx="6" fill="#121b2f"/><rect class="grow" style="animation-delay:0.44999999999999996s" x="185.3" y="254.3" width="38.0" height="51.7" rx="6" fill="url(#od-bar)"/><text class="fade" style="animation-delay:0.7s" x="204.3" y="248.3" text-anchor="middle" font-size="10.5" font-weight="700" fill="#e6edf7">55</text><text x="204.3" y="324" text-anchor="middle" font-size="11" font-weight="400" fill="#8a97b0">Jan</text><rect x="252.7" y="214" width="38.0" height="92" rx="6" fill="#121b2f"/><rect class="grow" style="animation-delay:0.5s" x="252.7" y="228.0" width="38.0" height="78.0" rx="6" fill="url(#od-bar)"/><text class="fade" style="animation-delay:0.75s" x="271.7" y="222.0" text-anchor="middle" font-size="10.5" font-weight="700" fill="#e6edf7">83</text><text x="271.7" y="324" text-anchor="middle" font-size="11" font-weight="400" fill="#8a97b0">Feb</text><rect x="320.0" y="214" width="38.0" height="92" rx="6" fill="#121b2f"/><rect class="grow" style="animation-delay:0.55s" x="320.0" y="265.6" width="38.0" height="40.4" rx="6" fill="url(#od-bar)"/><text class="fade" style="animation-delay:0.8s" x="339.0" y="259.6" text-anchor="middle" font-size="10.5" font-weight="700" fill="#e6edf7">43</text><text x="339.0" y="324" text-anchor="middle" font-size="11" font-weight="400" fill="#8a97b0">Mar</text><rect x="387.3" y="214" width="38.0" height="92" rx="6" fill="#121b2f"/><rect class="grow" style="animation-delay:0.6s" x="387.3" y="238.3" width="38.0" height="67.7" rx="6" fill="url(#od-bar)"/><text class="fade" style="animation-delay:0.85s" x="406.3" y="232.3" text-anchor="middle" font-size="10.5" font-weight="700" fill="#e6edf7">72</text><text x="406.3" y="324" text-anchor="middle" font-size="11" font-weight="400" fill="#8a97b0">Apr</text><rect x="454.7" y="214" width="38.0" height="92" rx="6" fill="#121b2f"/><rect class="grow" style="animation-delay:0.65s" x="454.7" y="244.0" width="38.0" height="62.0" rx="6" fill="url(#od-bar)"/><text class="fade" style="animation-delay:0.9s" x="473.7" y="238.0" text-anchor="middle" font-size="10.5" font-weight="700" fill="#e6edf7">66</text><text x="473.7" y="324" text-anchor="middle" font-size="11" font-weight="400" fill="#8a97b0">May</text><rect x="522.0" y="214" width="38.0" height="92" rx="6" fill="#121b2f"/><rect class="grow" style="animation-delay:0.7s" x="522.0" y="254.3" width="38.0" height="51.7" rx="6" fill="url(#od-bar)"/><text class="fade" style="animation-delay:0.95s" x="541.0" y="248.3" text-anchor="middle" font-size="10.5" font-weight="700" fill="#e6edf7">55</text><text x="541.0" y="324" text-anchor="middle" font-size="11" font-weight="400" fill="#8a97b0">Jun</text><rect x="589.3" y="214" width="38.0" height="92" rx="6" fill="#121b2f"/><rect class="grow" style="animation-delay:0.75s" x="589.3" y="244.9" width="38.0" height="61.1" rx="6" fill="url(#od-bar)"/><text class="fade" style="animation-delay:1s" x="608.3" y="238.9" text-anchor="middle" font-size="10.5" font-weight="700" fill="#e6edf7">65</text><text x="608.3" y="324" text-anchor="middle" font-size="11" font-weight="400" fill="#8a97b0">Jul</text><rect x="656.7" y="214" width="38.0" height="92" rx="6" fill="#121b2f"/><rect class="grow" style="animation-delay:0.8s" x="656.7" y="286.3" width="38.0" height="19.7" rx="6" fill="url(#od-bar)"/><text class="fade" style="animation-delay:1.05s" x="675.7" y="280.3" text-anchor="middle" font-size="10.5" font-weight="700" fill="#e6edf7">21</text><text x="675.7" y="324" text-anchor="middle" font-size="11" font-weight="400" fill="#8a97b0">Aug</text><rect x="724.0" y="214" width="38.0" height="92" rx="6" fill="#121b2f"/><rect class="grow" style="animation-delay:0.85s" x="724.0" y="275.0" width="38.0" height="31.0" rx="6" fill="url(#od-bar)"/><text class="fade" style="animation-delay:1.1s" x="743.0" y="269.0" text-anchor="middle" font-size="10.5" font-weight="700" fill="#e6edf7">33</text><text x="743.0" y="324" text-anchor="middle" font-size="11" font-weight="400" fill="#8a97b0">Sep</text><rect x="791.3" y="214" width="38.0" height="92" rx="6" fill="#121b2f"/><rect class="grow" style="animation-delay:0.9s" x="791.3" y="290.0" width="38.0" height="16.0" rx="6" fill="url(#od-now)"/><text class="fade" style="animation-delay:1.15s" x="810.3" y="284.0" text-anchor="middle" font-size="10.5" font-weight="700" fill="#e6edf7">17</text><text x="810.3" y="324" text-anchor="middle" font-size="11" font-weight="700" fill="#34d399">Oct</text><text x="844" y="348" text-anchor="end" font-size="9.5" fill="#8a97b0" opacity="0.7">updated 2026-10-11 · all-time, all years</text>
</svg>